<svg id="Capa_1" enable-background="new 0 0 506.01 506.01" height="512" viewBox="0 0 506.01 506.01" width="512" xmlns="http://www.w3.org/2000/svg"><g><g><path d="m267.829 358.016v-96.511h-29.649v96.511l-122.687 122.687c-5.789 5.789-5.789 15.175 0 20.965 5.788 5.789 15.175 5.789 20.965 0l101.722-101.723v91.24c0 8.187 6.637 14.825 14.824 14.825s14.825-6.637 14.825-14.825v-91.24l101.723 101.722c5.788 5.789 15.175 5.789 20.965 0 5.789-5.789 5.789-15.175 0-20.965z"/><path d="m427.67 202.206h-349.331c-8.187 0-14.825 6.637-14.825 14.824s6.637 14.825 14.825 14.825h349.332c8.187 0 14.824-6.637 14.824-14.825 0-8.186-6.637-14.824-14.825-14.824z"/><path d="m113.259 157.733v-125.976h-19.042c-8.187 0-14.825 6.637-14.825 14.825v125.976h36.416c-1.645-4.641-2.549-9.628-2.549-14.825z"/><path d="m426.616 46.582c0-8.187-6.637-14.825-14.825-14.825h-19.041v125.976c0 5.196-.904 10.184-2.55 14.824h36.416z"/><path d="m157.732 172.557h80.448v-123.866c0-26.892-21.799-48.691-48.69-48.691h-31.757c-8.187 0-14.824 6.637-14.824 14.825v142.908c-.001 8.187 6.635 14.824 14.823 14.824z"/><path d="m363.101 157.733v-142.908c0-8.188-6.637-14.825-14.824-14.825h-31.758c-26.891 0-48.69 21.799-48.69 48.691v123.867h80.448c8.188-.001 14.824-6.638 14.824-14.825z"/></g></g></svg>